<?xml version="1.0" standalone="no"?>
<!DOCTYPE svg PUBLIC "-//W3C//DTD SVG 20010904//EN"
 "http://www.w3.org/TR/2001/REC-SVG-20010904/DTD/svg10.dtd">
<svg version="1.0" xmlns="http://www.w3.org/2000/svg"
 width="768.000000pt" height="1086.000000pt" viewBox="0 0 768.000000 1086.000000"
 preserveAspectRatio="xMidYMid meet">

<g transform="translate(0.000000,1086.000000) scale(0.100000,-0.100000)"
fill="#000000" stroke="none">
<path d="M5542 2148 c-21 -21 -14 -47 14 -54 34 -9 64 18 48 44 -14 21 -45 27
-62 10z"/>
<path d="M3826 1495 c-6 -35 -11 -45 -26 -45 -25 0 -50 -10 -50 -21 0 -5 15
-9 34 -9 34 0 35 0 42 -56 7 -63 21 -56 26 14 3 40 4 42 38 43 19 1 38 1 43 0
4 0 7 3 7 8 0 5 -18 12 -39 16 -22 4 -46 14 -53 23 -7 9 -8 13 -2 9 7 -4 9 4
6 24 -7 46 -19 43 -26 -6z"/>
<path d="M3417 1076 c-8 -21 1 -44 23 -56 25 -13 53 10 48 41 -2 19 -10 25
-34 27 -21 2 -33 -2 -37 -12z"/>
<path d="M3492 918 c-28 -28 -7 -78 33 -78 27 0 45 18 45 47 0 35 -53 56 -78
31z"/>
<path d="M3842 777 c-28 -29 -28 -57 -1 -91 40 -51 119 -25 119 40 0 70 -72
100 -118 51z"/>
</g>
</svg>
